<?xml version='1.0' encoding='UTF-8'?>
<!DOCTYPE svg PUBLIC "-//W3C//DTD SVG 1.0//EN" "http://www.w3.org/TR/2001/REC-SVG-20010904/DTD/svg10.dtd ">
<svg viewBox="0 0 1408 216 " xmlns="http://www.w3.org/2000/svg"  xmlns:xlink="http://www.w3.org/1999/xlink"  xmlns:inkspace="http://www.inkscape.org/namespaces/inkscape" >
	<defs id="defs_block">
		<filter inkspace:collect="always" height="1.504" width="1.1575" y="-0.252" x="-0.07875" id="filter_blur">
			<feGaussianBlur stdDeviation="4.2" id="feGaussianBlur3780" inkspace:collect="always"/>
		</filter>
	</defs>
	<title>blockdiag</title>
	<rect style="filter:url(#filter_blur)" height="60" width="720" y="38" x="56" stroke-width="1" fill="rgb(243,152,0)"/>
	<rect style="filter:url(#filter_blur)" height="60" width="336" y="38" x="1016" stroke-width="1" fill="rgb(243,152,0)"/>
	<rect style="filter:url(#filter_blur);opacity:0.7;fill-opacity:1" height="40" width="128" stroke="rgb(0,0,0)" y="54" x="67" stroke-width="1" fill="rgb(0,0,0)"/>
	<rect style="filter:url(#filter_blur);opacity:0.7;fill-opacity:1" height="40" width="128" stroke="rgb(0,0,0)" y="54" x="259" stroke-width="1" fill="rgb(0,0,0)"/>
	<rect style="filter:url(#filter_blur);opacity:0.7;fill-opacity:1" height="40" width="128" stroke="rgb(0,0,0)" y="54" x="451" stroke-width="1" fill="rgb(0,0,0)"/>
	<rect style="filter:url(#filter_blur);opacity:0.7;fill-opacity:1" height="40" width="128" stroke="rgb(0,0,0)" y="54" x="643" stroke-width="1" fill="rgb(0,0,0)"/>
	<rect style="filter:url(#filter_blur);opacity:0.7;fill-opacity:1" height="40" width="128" stroke="rgb(0,0,0)" y="54" x="835" stroke-width="1" fill="rgb(0,0,0)"/>
	<rect style="filter:url(#filter_blur);opacity:0.7;fill-opacity:1" height="40" width="128" stroke="rgb(0,0,0)" y="54" x="1027" stroke-width="1" fill="rgb(0,0,0)"/>
	<rect style="filter:url(#filter_blur);opacity:0.7;fill-opacity:1" height="40" width="128" stroke="rgb(0,0,0)" y="54" x="1219" stroke-width="1" fill="rgb(0,0,0)"/>
	<rect style="filter:url(#filter_blur);opacity:0.7;fill-opacity:1" height="40" width="128" stroke="rgb(0,0,0)" y="134" x="835" stroke-width="1" fill="rgb(0,0,0)"/>
	<rect style="None" height="40" width="128" stroke="rgb(0,0,0)" y="48" x="64" stroke-width="1" fill="rgb(255,255,255)"/>
	<text y="74" x="124" font-size="11" font-family="/usr/share/fonts/truetype/ipafont/ipagp.ttf" fill="rgb(0,0,0)">A</text>
	<rect style="None" height="40" width="128" stroke="rgb(0,0,0)" y="48" x="256" stroke-width="1" fill="rgb(255,255,255)"/>
	<text y="74" x="317" font-size="11" font-family="/usr/share/fonts/truetype/ipafont/ipagp.ttf" fill="rgb(0,0,0)">B</text>
	<rect style="None" height="40" width="128" stroke="rgb(0,0,0)" y="48" x="448" stroke-width="1" fill="rgb(255,255,255)"/>
	<text y="74" x="508" font-size="11" font-family="/usr/share/fonts/truetype/ipafont/ipagp.ttf" fill="rgb(0,0,0)">C</text>
	<rect style="None" height="40" width="128" stroke="rgb(0,0,0)" y="48" x="640" stroke-width="1" fill="rgb(255,255,255)"/>
	<text y="74" x="700" font-size="11" font-family="/usr/share/fonts/truetype/ipafont/ipagp.ttf" fill="rgb(0,0,0)">D</text>
	<rect style="None" height="40" width="128" stroke="rgb(0,0,0)" y="48" x="832" stroke-width="1" fill="rgb(255,255,255)"/>
	<text y="74" x="893" font-size="11" font-family="/usr/share/fonts/truetype/ipafont/ipagp.ttf" fill="rgb(0,0,0)">F</text>
	<rect style="None" height="40" width="128" stroke="rgb(0,0,0)" y="48" x="1024" stroke-width="1" fill="rgb(255,255,255)"/>
	<text y="74" x="1084" font-size="11" font-family="/usr/share/fonts/truetype/ipafont/ipagp.ttf" fill="rgb(0,0,0)">G</text>
	<rect style="None" height="40" width="128" stroke="rgb(0,0,0)" y="48" x="1216" stroke-width="1" fill="rgb(255,255,255)"/>
	<text y="74" x="1276" font-size="11" font-family="/usr/share/fonts/truetype/ipafont/ipagp.ttf" fill="rgb(0,0,0)">H</text>
	<rect style="None" height="40" width="128" stroke="rgb(0,0,0)" y="128" x="832" stroke-width="1" fill="rgb(255,255,255)"/>
	<text y="154" x="893" font-size="11" font-family="/usr/share/fonts/truetype/ipafont/ipagp.ttf" fill="rgb(0,0,0)">E</text>
	<path stroke="rgb(0,0,0)" d="M 960 68 L 1024 68" fill="none"/>
	<polygon style="None" points="1024, 68  1016, 64  1016, 72  1024, 68  " stroke="rgb(0,0,0)" fill="rgb(0,0,0)"/>
	<path stroke="rgb(0,0,0)" d="M 192 68 L 224 68 L 224 108 L 604 108" fill="none"/>
	<path stroke="rgb(0,0,0)" d="M 612 108 L 816 108 L 816 68 L 832 68" fill="none"/>
	<polygon style="None" points="832, 68  824, 64  824, 72  832, 68  " stroke="rgb(0,0,0)" fill="rgb(0,0,0)"/>
	<path stroke="rgb(0,0,0)" d="M 604.0 108.0 A4,4 0 0 1 612.0 108.0" fill="none"/>
	<path stroke="rgb(0,0,0)" d="M 192 68 L 256 68" fill="none"/>
	<polygon style="None" points="256, 68  248, 64  248, 72  256, 68  " stroke="rgb(0,0,0)" fill="rgb(0,0,0)"/>
	<path stroke="rgb(0,0,0)" d="M 384 68 L 448 68" fill="none"/>
	<polygon style="None" points="448, 68  440, 64  440, 72  448, 68  " stroke="rgb(0,0,0)" fill="rgb(0,0,0)"/>
	<path stroke="rgb(0,0,0)" d="M 576 68 L 608 68 L 608 148 L 832 148" fill="none"/>
	<polygon style="None" points="832, 148  824, 144  824, 152  832, 148  " stroke="rgb(0,0,0)" fill="rgb(0,0,0)"/>
	<path stroke="rgb(0,0,0)" d="M 576 68 L 640 68" fill="none"/>
	<polygon style="None" points="640, 68  632, 64  632, 72  640, 68  " stroke="rgb(0,0,0)" fill="rgb(0,0,0)"/>
	<path stroke="rgb(0,0,0)" d="M 1152 68 L 1216 68" fill="none"/>
	<polygon style="None" points="1216, 68  1208, 64  1208, 72  1216, 68  " stroke="rgb(0,0,0)" fill="rgb(0,0,0)"/>
</svg>
