<?xml version='1.0' encoding='UTF-8'?>
<!DOCTYPE svg PUBLIC "-//W3C//DTD SVG 1.0//EN" "http://www.w3.org/TR/2001/REC-SVG-20010904/DTD/svg10.dtd ">
<svg viewBox="0 0 1024 216 " xmlns="http://www.w3.org/2000/svg"  xmlns:xlink="http://www.w3.org/1999/xlink"  xmlns:inkspace="http://www.inkscape.org/namespaces/inkscape" >
	<defs id="defs_block">
		<filter inkspace:collect="always" height="1.504" width="1.1575" y="-0.252" x="-0.07875" id="filter_blur">
			<feGaussianBlur stdDeviation="4.2" id="feGaussianBlur3780" inkspace:collect="always"/>
		</filter>
	</defs>
	<title>blockdiag</title>
	<rect style="filter:url(#filter_blur);opacity:0.7;fill-opacity:1" height="40" width="128" stroke="rgb(0,0,0)" y="54" x="67" stroke-width="1" fill="rgb(0,0,0)"/>
	<rect style="filter:url(#filter_blur);opacity:0.7;fill-opacity:1" height="40" width="128" stroke="rgb(0,0,0)" y="54" x="259" stroke-width="1" fill="rgb(0,0,0)"/>
	<rect style="filter:url(#filter_blur);opacity:0.7;fill-opacity:1" height="40" width="128" stroke="rgb(0,0,0)" y="54" x="451" stroke-width="1" fill="rgb(0,0,0)"/>
	<rect style="filter:url(#filter_blur);opacity:0.7;fill-opacity:1" height="40" width="128" stroke="rgb(0,0,0)" y="54" x="643" stroke-width="1" fill="rgb(0,0,0)"/>
	<rect style="filter:url(#filter_blur);opacity:0.7;fill-opacity:1" height="40" width="128" stroke="rgb(0,0,0)" y="54" x="835" stroke-width="1" fill="rgb(0,0,0)"/>
	<rect style="filter:url(#filter_blur);opacity:0.7;fill-opacity:1" height="40" width="128" stroke="rgb(0,0,0)" y="134" x="67" stroke-width="1" fill="rgb(0,0,0)"/>
	<rect style="filter:url(#filter_blur);opacity:0.7;fill-opacity:1" height="40" width="128" stroke="rgb(0,0,0)" y="134" x="259" stroke-width="1" fill="rgb(0,0,0)"/>
	<rect style="filter:url(#filter_blur);opacity:0.7;fill-opacity:1" height="40" width="128" stroke="rgb(0,0,0)" y="134" x="451" stroke-width="1" fill="rgb(0,0,0)"/>
	<rect style="filter:url(#filter_blur);opacity:0.7;fill-opacity:1" height="40" width="128" stroke="rgb(0,0,0)" y="134" x="643" stroke-width="1" fill="rgb(0,0,0)"/>
	<rect style="None" height="40" width="128" stroke="rgb(0,0,0)" y="48" x="64" stroke-width="1" fill="rgb(255,255,255)"/>
	<text y="74" x="117" font-size="11" font-family="/usr/share/fonts/truetype/ipafont/ipagp.ttf" fill="rgb(0,0,0)">朝食</text>
	<rect style="None" height="40" width="128" stroke="rgb(0,0,0)" y="48" x="256" stroke-width="1" fill="rgb(255,255,255)"/>
	<text y="74" x="309" font-size="11" font-family="/usr/share/fonts/truetype/ipafont/ipagp.ttf" fill="rgb(0,0,0)">昼食</text>
	<rect style="None" height="40" width="128" stroke="rgb(0,0,0)" y="48" x="448" stroke-width="1" fill="rgb(255,255,255)"/>
	<text y="74" x="497" font-size="11" font-family="/usr/share/fonts/truetype/ipafont/ipagp.ttf" fill="rgb(0,0,0)">おやつ</text>
	<rect style="None" height="40" width="128" stroke="rgb(0,0,0)" y="48" x="640" stroke-width="1" fill="rgb(255,255,255)"/>
	<text y="74" x="693" font-size="11" font-family="/usr/share/fonts/truetype/ipafont/ipagp.ttf" fill="rgb(0,0,0)">夕飯</text>
	<rect style="None" height="40" width="128" stroke="rgb(0,0,0)" y="48" x="832" stroke-width="1" fill="rgb(255,255,255)"/>
	<text y="74" x="885" font-size="11" font-family="/usr/share/fonts/truetype/ipafont/ipagp.ttf" fill="rgb(0,0,0)">夜食</text>
	<rect style="None" height="40" width="128" stroke="rgb(0,0,0)" y="128" x="64" stroke-width="1" fill="rgb(255,255,255)"/>
	<text y="154" x="123" font-size="11" font-family="/usr/share/fonts/truetype/ipafont/ipagp.ttf" fill="rgb(0,0,0)">起</text>
	<rect style="None" height="40" width="128" stroke="rgb(0,0,0)" y="128" x="256" stroke-width="1" fill="rgb(255,255,255)"/>
	<text y="154" x="315" font-size="11" font-family="/usr/share/fonts/truetype/ipafont/ipagp.ttf" fill="rgb(0,0,0)">承</text>
	<rect style="None" height="40" width="128" stroke="rgb(0,0,0)" y="128" x="448" stroke-width="1" fill="rgb(255,255,255)"/>
	<text y="154" x="507" font-size="11" font-family="/usr/share/fonts/truetype/ipafont/ipagp.ttf" fill="rgb(0,0,0)">転</text>
	<rect style="None" height="40" width="128" stroke="rgb(0,0,0)" y="128" x="640" stroke-width="1" fill="rgb(255,255,255)"/>
	<text y="154" x="699" font-size="11" font-family="/usr/share/fonts/truetype/ipafont/ipagp.ttf" fill="rgb(0,0,0)">結</text>
	<path stroke="rgb(0,0,0)" d="M 192 68 L 256 68" fill="none"/>
	<polygon style="None" points="256, 68  248, 64  248, 72  256, 68  " stroke="rgb(0,0,0)" fill="rgb(0,0,0)"/>
	<path stroke="rgb(0,0,0)" d="M 384 68 L 448 68" fill="none"/>
	<polygon style="None" points="448, 68  440, 64  440, 72  448, 68  " stroke="rgb(0,0,0)" fill="rgb(0,0,0)"/>
	<path stroke="rgb(0,0,0)" d="M 384 68 L 416 68 L 416 108 L 624 108 L 624 68 L 640 68" fill="none"/>
	<polygon style="None" points="640, 68  632, 64  632, 72  640, 68  " stroke="rgb(0,0,0)" fill="rgb(0,0,0)"/>
	<path stroke="rgb(0,0,0)" d="M 576 68 L 640 68" fill="none"/>
	<polygon style="None" points="640, 68  632, 64  632, 72  640, 68  " stroke="rgb(0,0,0)" fill="rgb(0,0,0)"/>
	<path stroke="rgb(0,0,0)" d="M 768 68 L 832 68" fill="none"/>
	<polygon style="None" points="832, 68  824, 64  824, 72  832, 68  " stroke="rgb(0,0,0)" fill="rgb(0,0,0)"/>
	<path stroke="rgb(0,0,0)" d="M 192 148 L 256 148" fill="none"/>
	<polygon style="None" points="256, 148  248, 144  248, 152  256, 148  " stroke="rgb(0,0,0)" fill="rgb(0,0,0)"/>
	<path stroke="rgb(0,0,0)" d="M 384 148 L 448 148" fill="none"/>
	<polygon style="None" points="448, 148  440, 144  440, 152  448, 148  " stroke="rgb(0,0,0)" fill="rgb(0,0,0)"/>
	<path stroke="rgb(0,0,0)" d="M 576 148 L 640 148" fill="none"/>
	<polygon style="None" points="640, 148  632, 144  632, 152  640, 148  " stroke="rgb(0,0,0)" fill="rgb(0,0,0)"/>
</svg>
